<mxfile host="app.diagrams.net" modified="2021-09-23T14:41:19.065Z" agent="5.0 (Macintosh; Intel Mac OS X 10_15_7) AppleWebKit/537.36 (KHTML, like Gecko) Chrome/93.0.4577.82 Safari/537.36" etag="WyfYkEEonvmmd0YnEwUW" version="15.2.9" type="github">
  <diagram id="Ej3-xaOhrqgAJqS2VOZ0" name="Page-1">
    <mxGraphModel dx="2066" dy="1008" grid="1" gridSize="10" guides="1" tooltips="1" connect="1" arrows="1" fold="1" page="1" pageScale="1" pageWidth="1100" pageHeight="850" math="0" shadow="0">
      <root>
        <mxCell id="0" />
        <mxCell id="1" parent="0" />
      </root>
    </mxGraphModel>
  </diagram>
</mxfile>
